<svg width="160" height="160" viewBox="0 0 160 160" fill="none" xmlns="http://www.w3.org/2000/svg">
<path d="M109.482 44.8702C82.3081 61.7486 67.8154 48.487 59.9652 44.8702C56.5433 40.6505 47.1634 36.3103 37.0185 52.7066C26.8736 69.1029 26.3503 90.0806 27.3567 98.5199C33.9992 114.796 40.6417 122.911 56.3421 124.441C81.1003 126.852 89.5544 124.441 101.632 109.37C110.327 98.5199 119.771 81.8872 126.39 74.4076C146 52.249 142 46.7489 139.675 42.459C136.884 37.3105 129.66 32.3372 109.482 44.8702Z" fill="#F8F8F8"/>
<rect x="50" y="44" width="34" height="50" rx="17" fill="#A0DDE1"/>
<path d="M63 37C53.3516 37 45.5 44.8516 45.5 54.5V64.5H39.25C37.873 64.5 36.75 65.623 36.75 67V69.5C36.75 70.877 37.873 72 39.25 72H40.5V74.5C40.5 85.1885 47.9951 94.1387 58 96.4189V102H55.0703C53.4004 102 51.833 102.649 50.6514 103.831L47.4824 107H41.75C39.6846 107 38 108.685 38 110.75C38 112.815 39.6846 114.5 41.75 114.5H84.25C86.3154 114.5 88 112.815 88 110.75C88 108.685 86.3154 107 84.25 107H78.5176L75.3486 103.831C74.167 102.649 72.5996 102 70.9297 102H68V96.4189C78.0049 94.1387 85.5 85.1885 85.5 74.5V72H86.75C88.127 72 89.25 70.877 89.25 69.5V67C89.25 65.623 88.127 64.5 86.75 64.5H80.5V54.5C80.5 44.8516 72.6484 37 63 37ZM63 39.5C69.5186 39.5 75.0605 43.6846 77.126 49.5H69.25C68.5615 49.5 68 50.0615 68 50.75C68 51.4385 68.5615 52 69.25 52H77.7705C77.9121 52.8154 78 53.6455 78 54.5H69.25C68.5615 54.5 68 55.0615 68 55.75C68 56.4385 68.5615 57 69.25 57H78V59.5H69.25C68.5615 59.5 68 60.0615 68 60.75C68 61.4385 68.5615 62 69.25 62H78V74.5C78 82.7715 71.2715 89.5 63 89.5C54.7285 89.5 48 82.7715 48 74.5V62H56.75C57.4385 62 58 61.4385 58 60.75C58 60.0615 57.4385 59.5 56.75 59.5H48V57H56.75C57.4385 57 58 56.4385 58 55.75C58 55.0615 57.4385 54.5 56.75 54.5H48C48 53.6455 48.0879 52.8154 48.2295 52H56.75C57.4385 52 58 51.4385 58 50.75C58 50.0615 57.4385 49.5 56.75 49.5H48.874C50.9395 43.6846 56.4814 39.5 63 39.5ZM50.5 65.75C49.8115 65.75 49.25 66.3115 49.25 67V69.5C49.25 70.1885 49.8115 70.75 50.5 70.75C51.1885 70.75 51.75 70.1885 51.75 69.5V67C51.75 66.3115 51.1885 65.75 50.5 65.75ZM56.75 65.75C56.0615 65.75 55.5 66.3115 55.5 67V69.5C55.5 70.1885 56.0615 70.75 56.75 70.75C57.4385 70.75 58 70.1885 58 69.5V67C58 66.3115 57.4385 65.75 56.75 65.75ZM63 65.75C62.3115 65.75 61.75 66.3115 61.75 67V69.5C61.75 70.1885 62.3115 70.75 63 70.75C63.6885 70.75 64.25 70.1885 64.25 69.5V67C64.25 66.3115 63.6885 65.75 63 65.75ZM69.25 65.75C68.5615 65.75 68 66.3115 68 67V69.5C68 70.1885 68.5615 70.75 69.25 70.75C69.9385 70.75 70.5 70.1885 70.5 69.5V67C70.5 66.3115 69.9385 65.75 69.25 65.75ZM75.5 65.75C74.8115 65.75 74.25 66.3115 74.25 67V69.5C74.25 70.1885 74.8115 70.75 75.5 70.75C76.1885 70.75 76.75 70.1885 76.75 69.5V67C76.75 66.3115 76.1885 65.75 75.5 65.75ZM39.25 67H45.5V69.5H39.25V67ZM80.5 67H86.75V69.5H80.5V67ZM43 72H45.5V74.5C45.5 84.1484 53.3516 92 63 92C72.6484 92 80.5 84.1484 80.5 74.5V72H83V74.5C83 85.5254 74.0254 94.5 63 94.5C51.9746 94.5 43 85.5254 43 74.5V72ZM60.5 96.8535C61.3203 96.9463 62.1553 97 63 97C63.8447 97 64.6797 96.9463 65.5 96.8535V102H60.5V96.8535ZM55.0703 104.5H70.9297C71.916 104.5 72.8828 104.9 73.5811 105.599L74.9824 107H51.0176L52.4189 105.599C53.1172 104.9 54.084 104.5 55.0703 104.5ZM41.75 109.5H84.25C84.9385 109.5 85.5 110.062 85.5 110.75C85.5 111.438 84.9385 112 84.25 112H41.75C41.0615 112 40.5 111.438 40.5 110.75C40.5 110.062 41.0615 109.5 41.75 109.5Z" fill="black"/>
</svg>
