<svg width="160" height="160" viewBox="0 0 160 160" fill="none" xmlns="http://www.w3.org/2000/svg">
<path d="M36.9982 29.3856C21.3626 41.1343 24.2943 79.3174 27.7146 96.9404C28.1627 99.3879 29.1804 100.367 30.6462 99.8776C31.6827 99.5315 48.8877 85.8445 57.5199 79.807C70.0283 70.7997 85.8594 73.4432 92.2113 75.8908C102.765 77.0657 112.896 73.1167 116.642 70.9954C131.496 62.7714 135.96 49.946 133.255 43.582C122.017 17.1475 103.938 17.1474 90.7455 20.5741C80.1915 23.3155 64.1976 21.7164 57.5199 20.5741C48.1385 19.7909 39.9299 26.1221 36.9982 29.3856Z" fill="#F8F8F8"/>
<path d="M93 100L82 87.5C78.9391 84.3 80.7246 81.1667 82 80C88 74.5114 92 80.1667 93 83C95.5 79.8333 101.6 74.4 106 80C107.964 82.5 108 85 106 87.5L93 100Z" fill="#E97E7B"/>
<path d="M102.343 42.5C100.292 42.5 98.3682 43.2959 96.918 44.7461C95.5996 46.0645 94.7598 48.9697 94.2227 51.8066C93.793 50.3174 93.2021 48.9258 92.3867 48.1152C91.1807 46.9043 89.5693 46.2402 87.8555 46.2402C86.1465 46.2402 84.5352 46.9043 83.3242 48.1152C82.1133 49.3262 81.4492 50.9375 81.4492 52.6514C81.4492 54.3604 82.1133 55.9717 83.3242 57.1826C83.4609 57.3193 83.6172 57.4463 83.793 57.5732L62.25 57.5C60.1846 57.5 58.5 59.1846 58.5 61.25V66.25C58.5 67.8809 59.5449 69.2725 61 69.7852V111.323C61 113.389 62.6846 115 64.75 115H124.75C126.815 115 128.5 113.389 128.5 111.323V69.7852C129.955 69.2676 131 67.8809 131 66.25V61.25C131 59.1846 129.315 57.5 127.25 57.5L104.296 57.5732C105.741 57.0068 107.006 56.3477 107.763 55.5908C110.756 52.6025 110.756 47.7344 107.763 44.7461C106.317 43.2959 104.394 42.5 102.343 42.5ZM102.343 45C103.725 45 105.023 45.5371 106 46.5137C108.012 48.5303 108.012 51.8066 106 53.8232C104.599 55.2197 99.6572 56.5234 96.0146 57.207C96.3857 53.2715 97.3037 47.9004 98.6904 46.5137C99.667 45.5371 100.961 45 102.343 45ZM87.8555 48.7402C88.9004 48.7402 89.8818 49.1406 90.624 49.8828C91.6055 50.8691 92.3428 54.2676 92.6699 56.9922C89.4473 56.875 86.0049 56.3281 85.0918 55.4102C84.3545 54.6729 83.9443 53.6914 83.9443 52.6514C83.9443 51.6064 84.3545 50.6201 85.0918 49.8828C85.8291 49.1455 86.8154 48.7402 87.8555 48.7402ZM62.25 60H93.3047L93.5 60.1562V67.5H62.25C61.5615 67.5 61 66.9385 61 66.25V61.25C61 60.5615 61.5615 60 62.25 60ZM96 60H127.25C127.938 60 128.5 60.5615 128.5 61.25V66.25C128.5 66.9385 127.938 67.5 127.25 67.5H109.75C109.062 67.5 108.5 68.0615 108.5 68.75C108.5 69.4385 109.062 70 109.75 70H126V111.323C126 112.012 125.438 112.5 124.75 112.5H64.75C64.0615 112.5 63.5 112.012 63.5 111.323V70H94.75C95.4385 70 96 69.4385 96 68.75V60ZM99.75 67.5C99.0615 67.5 98.5 68.0615 98.5 68.75C98.5 69.4385 99.0615 70 99.75 70H104.75C105.438 70 106 69.4385 106 68.75C106 68.0615 105.438 67.5 104.75 67.5H99.75ZM87.8164 73.75C85.3457 73.75 83.0166 74.6729 81.2686 76.4258C77.6553 80.0391 77.6553 85.918 81.2686 89.5312L93.168 101.431C93.5977 101.86 94.1738 102.1 94.7842 102.1C95.3896 102.1 95.9658 101.86 96.3955 101.431L108.285 89.5312C111.898 85.918 111.898 80.0391 108.285 76.4258C106.537 74.6729 104.208 73.75 101.737 73.75C99.2617 73.75 96.9326 74.6729 95.1797 76.4258L94.7744 76.8311L94.374 76.4258C92.6211 74.6777 90.292 73.75 87.8164 73.75ZM87.8213 76.2109C89.6279 76.2109 91.3271 76.9141 92.6064 78.1885L93.0117 78.5938L92.3818 79.2285C91.8887 79.7168 91.8887 80.5078 92.3818 80.9961C92.6211 81.2402 92.9434 81.3623 93.2656 81.3623C93.583 81.3623 93.9053 81.2402 94.1445 80.9961L96.9521 78.1885C98.2314 76.9141 99.9307 76.2109 101.737 76.2109C103.544 76.2109 105.243 76.9141 106.522 78.1885C109.154 80.8301 109.154 85.1221 106.518 87.7588L94.7842 99.5068L83.0361 87.7588C80.3994 85.1221 80.3994 80.8301 83.0361 78.1885C84.3154 76.9141 86.0146 76.2109 87.8213 76.2109ZM67.25 105.073C66.5615 105.073 66 105.63 66 106.323V108.823C66 109.512 66.5615 110.073 67.25 110.073C67.9385 110.073 68.5 109.512 68.5 108.823V106.323C68.5 105.63 67.9385 105.073 67.25 105.073ZM73.5 105.073C72.8115 105.073 72.25 105.63 72.25 106.323V108.823C72.25 109.512 72.8115 110.073 73.5 110.073C74.1885 110.073 74.75 109.512 74.75 108.823V106.323C74.75 105.63 74.1885 105.073 73.5 105.073ZM79.75 105.073C79.0615 105.073 78.5 105.63 78.5 106.323V108.823C78.5 109.512 79.0615 110.073 79.75 110.073C80.4385 110.073 81 109.512 81 108.823V106.323C81 105.63 80.4385 105.073 79.75 105.073ZM86 105.073C85.3115 105.073 84.75 105.63 84.75 106.323V108.823C84.75 109.512 85.3115 110.073 86 110.073C86.6885 110.073 87.25 109.512 87.25 108.823V106.323C87.25 105.63 86.6885 105.073 86 105.073ZM92.25 105.073C91.5615 105.073 91 105.63 91 106.323V108.823C91 109.512 91.5615 110.073 92.25 110.073C92.9385 110.073 93.5 109.512 93.5 108.823V106.323C93.5 105.63 92.9385 105.073 92.25 105.073ZM98.5 105.073C97.8115 105.073 97.25 105.63 97.25 106.323V108.823C97.25 109.512 97.8115 110.073 98.5 110.073C99.1885 110.073 99.75 109.512 99.75 108.823V106.323C99.75 105.63 99.1885 105.073 98.5 105.073ZM104.75 105.073C104.062 105.073 103.5 105.63 103.5 106.323V108.823C103.5 109.512 104.062 110.073 104.75 110.073C105.438 110.073 106 109.512 106 108.823V106.323C106 105.63 105.438 105.073 104.75 105.073ZM111 105.073C110.312 105.073 109.75 105.63 109.75 106.323V108.823C109.75 109.512 110.312 110.073 111 110.073C111.688 110.073 112.25 109.512 112.25 108.823V106.323C112.25 105.63 111.688 105.073 111 105.073ZM117.25 105.073C116.562 105.073 116 105.63 116 106.323V108.823C116 109.512 116.562 110.073 117.25 110.073C117.938 110.073 118.5 109.512 118.5 108.823V106.323C118.5 105.63 117.938 105.073 117.25 105.073ZM123.5 105.073C122.812 105.073 122.25 105.63 122.25 106.323V108.823C122.25 109.512 122.812 110.073 123.5 110.073C124.188 110.073 124.75 109.512 124.75 108.823V106.323C124.75 105.63 124.188 105.073 123.5 105.073Z" fill="black"/>
</svg>
