<svg width="160" height="160" viewBox="0 0 160 160" fill="none" xmlns="http://www.w3.org/2000/svg">
<path d="M56.5143 51.4695C38.3293 49.3358 33.8722 39.3784 26.5626 36C7.84271 36 18.0049 68.5393 26.5626 79.2079C35.1202 89.8765 59.7234 114.948 74.6993 129.884C86.68 141.833 99.8374 137.352 105.186 133.618C110.534 129.884 128.185 108.547 131.394 101.079C134.603 93.6105 141.235 76.5407 137.812 61.6047C133.533 42.9346 119.092 44.0015 105.186 48.8023C91.2797 53.6032 74.6993 53.6032 56.5143 51.4695Z" fill="#F8F8F8"/>
<ellipse cx="102.541" cy="60.1509" rx="18.1132" ry="18.1132" fill="#49A8DB"/>
<path d="M106.063 36.3459C94.9682 36.3459 85.9371 45.377 85.9371 56.4717C85.9371 58.2062 86.1631 59.8915 86.5808 61.5032H83.2052C82.0112 54.3687 75.8005 48.9246 68.327 48.9246C59.9986 48.9246 53.2327 55.6905 53.2327 64.0189C53.2327 70.5834 57.4338 76.17 63.2956 78.2485V103.013C63.2956 105.086 64.9957 106.786 67.0692 106.786H68.327V108.044C68.327 110.122 70.0222 111.818 72.1006 111.818C74.179 111.818 75.8742 110.122 75.8742 108.044V106.786H103.547V108.044C103.547 110.122 105.242 111.818 107.321 111.818C109.399 111.818 111.094 110.122 111.094 108.044V106.786H112.352C114.426 106.786 116.126 105.086 116.126 103.013V94.2076H119.521L126.203 98.615C126.823 99.0228 127.54 99.239 128.277 99.239H131.22C132.606 99.239 133.736 98.1089 133.736 96.7233V76.5975C133.736 75.2119 132.606 74.0818 131.22 74.0818H128.277C127.54 74.0818 126.823 74.298 126.203 74.7058L119.521 79.1132H116.126V73.8803C122.14 70.4065 126.189 63.9059 126.189 56.4717C126.189 45.377 117.158 36.3459 106.063 36.3459ZM106.063 38.8617C115.772 38.8617 123.673 46.7626 123.673 56.4717C123.673 62.4466 120.681 67.7286 116.126 70.9126C115.335 71.4776 114.49 71.969 113.61 72.3866C111.32 73.4774 108.756 74.0818 106.063 74.0818C99.0464 74.0818 92.9782 69.9544 90.148 64.0189C89.7598 63.2131 89.4454 62.3729 89.18 61.5032C88.7034 59.9063 88.4528 58.2209 88.4528 56.4717C88.4528 46.7626 96.3538 38.8617 106.063 38.8617ZM106.063 41.3774C105.365 41.3774 104.805 41.9424 104.805 42.6353V45.151C104.805 45.8438 105.365 46.4088 106.063 46.4088C106.761 46.4088 107.321 45.8438 107.321 45.151V42.6353C107.321 41.9424 106.761 41.3774 106.063 41.3774ZM68.327 51.4403C74.3903 51.4403 79.4857 55.7691 80.6551 61.5032C80.8172 62.309 80.9057 63.1492 80.9057 64.0189C80.9057 70.9519 75.26 76.5975 68.327 76.5975C67.4574 76.5975 66.6171 76.5091 65.8113 76.3469C64.9318 76.17 64.0867 75.8949 63.2956 75.5411C58.8538 73.6052 55.7484 69.1634 55.7484 64.0189C55.7484 57.0859 61.3941 51.4403 68.327 51.4403ZM106.063 51.4403C103.287 51.4403 101.031 53.6956 101.031 56.4717C101.031 59.2479 103.287 61.5032 106.063 61.5032C108.839 61.5032 111.094 59.2479 111.094 56.4717C111.094 53.6956 108.839 51.4403 106.063 51.4403ZM106.063 53.956C107.449 53.956 108.579 55.0861 108.579 56.4717C108.579 57.8573 107.449 58.9875 106.063 58.9875C104.677 58.9875 103.547 57.8573 103.547 56.4717C103.547 55.0861 104.677 53.956 106.063 53.956ZM92.2264 55.2139C91.5287 55.2139 90.9686 55.7789 90.9686 56.4717C90.9686 57.1645 91.5287 57.7296 92.2264 57.7296H94.7421C95.4399 57.7296 96 57.1645 96 56.4717C96 55.7789 95.4399 55.2139 94.7421 55.2139H92.2264ZM117.384 55.2139C116.686 55.2139 116.126 55.7789 116.126 56.4717C116.126 57.1645 116.686 57.7296 117.384 57.7296H119.899C120.597 57.7296 121.157 57.1645 121.157 56.4717C121.157 55.7789 120.597 55.2139 119.899 55.2139H117.384ZM68.327 58.9875C65.5509 58.9875 63.2956 61.2428 63.2956 64.0189C63.2956 66.795 65.5509 69.0503 68.327 69.0503C71.1032 69.0503 73.3585 66.795 73.3585 64.0189C73.3585 61.2428 71.1032 58.9875 68.327 58.9875ZM96.1032 60.8841C95.941 60.9037 95.7789 60.9578 95.6266 61.0462L93.4499 62.3041C92.8504 62.648 92.6441 63.4195 92.9929 64.0189C93.2239 64.4218 93.6464 64.6478 94.0788 64.6478C94.295 64.6478 94.5112 64.5938 94.7077 64.4759L96.8844 63.218C97.4888 62.8741 97.6952 62.1026 97.3512 61.5032C97.0859 61.0511 96.5896 60.8251 96.1032 60.8841ZM68.327 61.5032C69.7127 61.5032 70.8428 62.6333 70.8428 64.0189C70.8428 65.4045 69.7127 66.5346 68.327 66.5346C66.9414 66.5346 65.8113 65.4045 65.8113 64.0189C65.8113 62.6333 66.9414 61.5032 68.327 61.5032ZM83.4214 64.0189H87.4112C90.4035 71.3892 97.6362 76.5975 106.063 76.5975C108.731 76.5975 111.281 76.0669 113.61 75.1235V103.013C113.61 103.705 113.045 104.27 112.352 104.27H67.0692C66.3764 104.27 65.8113 103.705 65.8113 103.013V101.755H99.7736C100.471 101.755 101.031 101.19 101.031 100.497C101.031 99.8041 100.471 99.239 99.7736 99.239H65.8113V78.897C66.627 79.0395 67.4721 79.1132 68.327 79.1132C76.6555 79.1132 83.4214 72.3473 83.4214 64.0189ZM100.56 65.0262C100.068 64.9672 99.5721 65.1981 99.3166 65.6502L98.0588 67.8269C97.7099 68.4263 97.9163 69.1978 98.5157 69.5417C98.7123 69.6596 98.9285 69.7137 99.1447 69.7137C99.577 69.7137 99.9996 69.4877 100.231 69.0847L101.488 66.9081C101.837 66.3037 101.636 65.5323 101.031 65.1834C100.879 65.0999 100.717 65.0458 100.56 65.0262ZM106.063 66.5346C105.365 66.5346 104.805 67.0997 104.805 67.7925V70.3082C104.805 71.001 105.365 71.5661 106.063 71.5661C106.761 71.5661 107.321 71.001 107.321 70.3082V67.7925C107.321 67.0997 106.761 66.5346 106.063 66.5346ZM128.277 76.5975H131.22V96.7233H128.277C128.031 96.7233 127.79 96.6545 127.584 96.5169L121.157 92.2766V81.0443L127.584 76.8039C127.79 76.6663 128.031 76.5975 128.277 76.5975ZM127.447 80.3711C126.749 80.3711 126.189 80.9362 126.189 81.629V91.6919C126.189 92.3847 126.749 92.9497 127.447 92.9497C128.144 92.9497 128.704 92.3847 128.704 91.6919V81.629C128.704 80.9362 128.144 80.3711 127.447 80.3711ZM79.6478 81.629C78.2622 81.629 77.1321 82.7591 77.1321 84.1447V89.1761C77.1321 90.5617 78.2622 91.6919 79.6478 91.6919H99.7736C101.159 91.6919 102.289 90.5617 102.289 89.1761V84.1447C102.289 82.7591 101.159 81.629 99.7736 81.629H79.6478ZM116.126 81.629H118.642V91.6919H116.126V81.629ZM79.6478 84.1447H99.7736V89.1761H79.6478V84.1447ZM104.805 99.239C104.107 99.239 103.547 99.8041 103.547 100.497C103.547 101.19 104.107 101.755 104.805 101.755H109.836C110.534 101.755 111.094 101.19 111.094 100.497C111.094 99.8041 110.534 99.239 109.836 99.239H104.805ZM70.8428 106.786H73.3585V108.044C73.3585 108.737 72.7934 109.302 72.1006 109.302C71.4078 109.302 70.8428 108.737 70.8428 108.044V106.786ZM106.063 106.786H108.579V108.044C108.579 108.737 108.014 109.302 107.321 109.302C106.628 109.302 106.063 108.737 106.063 108.044V106.786Z" fill="#37424A"/>
</svg>
