<svg width="428" height="512" viewBox="0 0 428 512" fill="none" xmlns="http://www.w3.org/2000/svg">
<path d="M210.352 246.633C244.234 246.633 273.57 234.48 297.547 210.504C321.516 186.531 333.672 157.199 333.672 123.312C333.672 89.4375 321.52 60.1016 297.543 36.1211C273.566 12.1523 244.23 0 210.352 0C176.465 0 147.133 12.1523 123.16 36.125C99.1875 60.0977 87.0312 89.4336 87.0312 123.312C87.0312 157.199 99.1875 186.535 123.16 210.508C147.141 234.477 176.477 246.633 210.352 246.633V246.633ZM144.379 57.3398C162.773 38.9453 184.352 30.0039 210.352 30.0039C236.348 30.0039 257.93 38.9453 276.328 57.3398C294.723 75.7383 303.668 97.3203 303.668 123.312C303.668 149.312 294.723 170.891 276.328 189.289C257.93 207.688 236.348 216.629 210.352 216.629C184.359 216.629 162.781 207.684 144.379 189.289C125.98 170.895 117.035 149.312 117.035 123.312C117.035 97.3203 125.98 75.7383 144.379 57.3398Z" fill="black"/>
<path d="M426.129 393.703C425.438 383.727 424.039 372.844 421.98 361.352C419.902 349.773 417.227 338.828 414.023 328.824C410.711 318.484 406.215 308.273 400.648 298.488C394.879 288.332 388.098 279.488 380.488 272.211C372.531 264.598 362.789 258.477 351.523 254.012C340.297 249.57 327.855 247.32 314.547 247.32C309.32 247.32 304.266 249.465 294.504 255.82C288.496 259.738 281.469 264.27 273.625 269.281C266.918 273.555 257.832 277.559 246.609 281.184C235.66 284.727 224.543 286.523 213.566 286.523C202.598 286.523 191.48 284.727 180.523 281.184C169.312 277.562 160.223 273.559 153.527 269.285C145.758 264.32 138.727 259.789 132.629 255.816C122.875 249.461 117.82 247.316 112.594 247.316C99.2812 247.316 86.8438 249.57 75.6211 254.016C64.3633 258.473 54.6172 264.594 46.6523 272.215C39.043 279.496 32.2617 288.336 26.4961 298.488C20.9375 308.273 16.4375 318.48 13.125 328.828C9.92578 338.832 7.25 349.773 5.17188 361.352C3.10938 372.828 1.71484 383.715 1.02344 393.715C0.34375 403.492 0 413.668 0 423.949C0 450.676 8.49609 472.312 25.25 488.27C41.7969 504.016 63.6875 512 90.3164 512H336.848C363.469 512 385.359 504.016 401.91 488.27C418.668 472.324 427.164 450.68 427.164 423.945C427.16 413.629 426.813 403.453 426.129 393.703V393.703ZM381.223 466.531C370.289 476.938 355.773 481.996 336.844 481.996H90.3164C71.3828 481.996 56.8672 476.938 45.9375 466.535C35.2148 456.328 30.0039 442.395 30.0039 423.949C30.0039 414.355 30.3203 404.883 30.9531 395.789C31.5703 386.867 32.832 377.066 34.7031 366.652C36.5508 356.367 38.9023 346.715 41.6992 337.977C44.3828 329.598 48.043 321.301 52.582 313.309C56.9141 305.691 61.8984 299.156 67.3984 293.891C72.543 288.965 79.0273 284.934 86.668 281.91C93.7344 279.113 101.676 277.582 110.297 277.352C111.348 277.91 113.219 278.977 116.25 280.953C122.418 284.973 129.527 289.559 137.387 294.578C146.246 300.227 157.66 305.328 171.297 309.73C185.238 314.238 199.457 316.527 213.57 316.527C227.684 316.527 241.906 314.238 255.84 309.734C269.488 305.324 280.898 300.227 289.77 294.57C297.812 289.43 304.723 284.977 310.891 280.953C313.922 278.98 315.793 277.91 316.844 277.352C325.469 277.582 333.41 279.113 340.48 281.91C348.117 284.934 354.602 288.969 359.746 293.891C365.246 299.152 370.23 305.688 374.562 313.312C379.105 321.301 382.77 329.602 385.449 337.973C388.25 346.723 390.605 356.371 392.449 366.648C394.316 377.082 395.582 386.887 396.199 395.793V395.801C396.836 404.859 397.156 414.328 397.16 423.949C397.156 442.398 391.945 456.328 381.223 466.531V466.531Z" fill="black"/>
</svg>
